<?xml version="1.0" encoding="iso-8859-1"?>
<!-- Generator: Adobe Illustrator 13.0.0, SVG Export Plug-In . SVG Version: 6.00 Build 14948)  -->
<!DOCTYPE svg PUBLIC "-//W3C//DTD SVG 1.1//EN" "http://www.w3.org/Graphics/SVG/1.1/DTD/svg11.dtd">
<svg version="1.1" id="Layer_1" xmlns="http://www.w3.org/2000/svg" xmlns:xlink="http://www.w3.org/1999/xlink" x="0px" y="0px"
	 width="100px" height="100px" viewBox="0 0 100 100" style="enable-background:new 0 0 100 100;" xml:space="preserve">
<g id="Layer_2">
	<g id="Layer_2_1_">
		<circle cx="49.5" cy="49.5" r="47.584"/>
		<path d="M49.738,90.607c-22.489,0-40.786-18.295-40.786-40.787c0-22.488,18.297-40.785,40.786-40.785s40.786,18.296,40.786,40.785
			C90.523,72.313,72.229,90.607,49.738,90.607L49.738,90.607z"/>
		<path style="fill:#FFFFFF;" d="M49.738,6.318c24.028,0,43.505,19.478,43.505,43.505c0,24.026-19.478,43.505-43.505,43.505
			c-24.027,0-43.505-19.479-43.505-43.505C6.233,25.796,25.71,6.318,49.738,6.318 M49.738,11.756
			c-20.991,0-38.066,17.077-38.066,38.067c0,20.989,17.076,38.067,38.066,38.067c20.991,0,38.067-17.078,38.067-38.067
			C87.805,28.833,70.729,11.756,49.738,11.756L49.738,11.756z"/>
	</g>
</g>
<polygon style="fill:#FFFFFF;" points="65.649,50.695 83.667,29.326 71.827,29.326 57.893,46.415 57.893,29.326 15.917,29.326 
	11.893,37.24 27.043,37.24 27.043,71.505 36.993,71.505 36.993,37.24 47.971,37.24 47.971,71.505 57.893,71.505 57.893,55.362 
	79.37,77.161 85.403,71.505 "/>
</svg>
